<svg xmlns="http://www.w3.org/2000/svg" xmlns:xlink="http://www.w3.org/1999/xlink" width="120" height="120" viewBox="0 0 120 120" id="stocks">
  <defs>
    <linearGradient id="linearGradient-3" x1="50%" x2="50%" y1="0%" y2="100%">
      <stop offset="0%" stop-color="#EEE" stop-opacity=".3"></stop>
      <stop offset="100%" stop-color="#D8D8D8" stop-opacity="0"></stop>
    </linearGradient>
    <circle id="path-4" cx="98" cy="39" r="6"></circle>
    <rect id="path-1" width="120" height="120" x="0" y="0" rx="28"></rect>
  </defs>
  <g id="@2x" fill="none" fill-rule="evenodd" stroke="none" stroke-width="1">
    <g id="Stocks">
      <mask id="mask-2" fill="#fff">
        <use xlink:href="#path-1"></use>
      </mask>
      <use xlink:href="#path-1" id="bg" fill="#1C181B"></use>
      <g mask="url(#mask-2)">
        <g transform="translate(-19)">
          <g id="line" fill="none" fill-rule="evenodd" stroke="none" stroke-width="1" transform="translate(36)">
            <path id="Rectangle" fill="#3C3A3E" d="M0 0h3v120H0z"></path>
            <path id="Rectangle-Copy" fill="#3C3A3E" d="M20 0h3v120h-3z"></path>
            <path id="Rectangle-Copy-2" fill="#3C3A3E" d="M40 0h3v120h-3z"></path>
            <path id="Rectangle-Copy-3" fill="#3C3A3E" d="M81 0h3v120h-3z"></path>
            <path id="Rectangle-Copy-4" fill="#00B0FC" d="M60 0h3v120h-3z"></path>
          </g>
          <path id="graph" fill="url(#linearGradient-3)" fill-rule="evenodd" stroke="#FFF" stroke-width="2" d="M19 65.5h5.5L38 73l13.5-10.5L58 69l6.5-18 6 18 6.5 6.5 8.5-13 6.5-3L98 39l7.5 18.25 5.5-4.75 7.5 16.5 6.5-16.5 17-16 9.5 96H0l8.5-67z"></path>
          <g id="Oval" fill="none" stroke="none">
            <use xlink:href="#path-4" fill="#00B3F9"></use>
            <circle cx="98" cy="39" r="6.5" stroke="#1C181B"></circle>
          </g>
        </g>
      </g>
    </g>
  </g>
</svg>
